<svg width="96" height="106" viewBox="0 0 96 106" fill="none" xmlns="http://www.w3.org/2000/svg">
<g filter="url(#filter0_d)">
<path d="M90.6012 95.1692L88.7745 87.9622C88.5753 87.1756 87.777 86.7003 86.9904 86.8995C86.2045 87.0987 85.7291 87.897 85.9276 88.6829L87.7535 95.8892C87.8868 96.415 87.7718 96.9629 87.4386 97.3906C87.1061 97.8176 86.6044 98.063 86.0624 98.063H9.68384C9.14185 98.063 8.64015 97.8176 8.30763 97.3906C7.97438 96.9629 7.85939 96.415 7.99196 95.8899L11.5376 81.8971C12.4897 78.1361 15.2319 75.0885 18.8713 73.7438L30.4368 69.4716L39.5254 78.5104C39.811 78.7938 40.1853 78.9374 40.561 78.9374C40.9053 78.9374 41.251 78.8165 41.5286 78.5734L47.8537 73.0327L53.9064 78.5536C54.1869 78.8092 54.5414 78.9374 54.8952 78.9374C55.2636 78.9374 55.6312 78.7997 55.9154 78.525L65.2962 69.4658L76.875 73.7431C80.5143 75.0878 83.2565 78.1361 84.2086 81.8971L84.5932 83.4139C84.7924 84.1998 85.5907 84.6751 86.3773 84.4767C87.1632 84.2767 87.6393 83.4784 87.4401 82.6918L87.0555 81.1764C85.8654 76.4772 82.4406 72.6686 77.893 70.9885L59.1285 64.0569C58.2042 63.7156 57.1883 63.8086 56.3417 64.3125L55.6744 64.7102L47.8676 69.3581L40.4988 65.0332L39.3071 64.3337C39.2017 64.2715 39.094 64.2158 38.9841 64.1668C38.2129 63.8225 37.3399 63.791 36.5379 64.0877L30.2984 66.3926C30.297 66.3933 30.2948 66.394 30.2933 66.3948L17.8539 70.9892C13.3064 72.6686 9.88086 76.4772 8.69142 81.1764L5.14506 95.1699C4.78837 96.5806 5.09672 98.0476 5.99027 99.1953C6.88381 100.342 8.22999 101 9.68384 101H86.0624C87.5162 101 88.8624 100.342 89.756 99.1953C90.6495 98.0476 90.9579 96.5798 90.6012 95.1692ZM40.624 75.4613L33.4734 68.3503L37.5552 66.843C37.6431 66.81 37.7398 66.8188 37.8203 66.8664L38.0005 66.9719L45.3745 71.3005L40.624 75.4613ZM54.8666 75.4555L50.3256 71.3129L55.7155 68.1035L57.8431 66.8364C57.9244 66.7881 58.0211 66.7793 58.1097 66.8122L62.2376 68.3364L54.8666 75.4555Z" fill="#27AE60"/>
<path d="M46.405 78.1874V93.8428C46.405 94.6536 47.062 95.3113 47.8728 95.3113C48.6843 95.3113 49.3413 94.6536 49.3413 93.8428V78.1874C49.3413 77.3759 48.6843 76.7189 47.8728 76.7189C47.062 76.7189 46.405 77.3759 46.405 78.1874Z" fill="#27AE60"/>
<path d="M32.3974 14.7344C32.6728 14.4319 32.9614 14.1338 33.2551 13.8467C37.2848 9.91146 42.6175 7.81894 48.2623 7.94272C53.5987 8.06797 58.6318 10.2315 62.4338 14.0335C66.2358 17.8355 68.3993 22.8686 68.5246 28.205C68.6439 33.2814 66.911 38.2106 63.6452 42.0836C61.3718 44.7803 58.4319 46.8662 55.1433 48.1172C54.0088 48.5493 53.2464 49.648 53.2464 50.8521V55.3989C53.2464 58.3644 50.8352 60.8232 47.8719 60.8796C46.4298 60.9089 45.0492 60.3508 43.9908 59.3122C42.9054 58.2473 42.2821 56.7707 42.2821 55.2612V46.5689C42.2821 42.4681 45.2374 39.0257 49.3089 38.3849C51.4344 38.0494 53.4199 36.9947 54.9016 35.4142C55.4561 34.8224 55.426 33.893 54.8342 33.3385C54.2432 32.7848 53.3137 32.8141 52.7593 33.4059C51.7076 34.528 50.3562 35.2465 48.8519 35.4838C43.3441 36.3517 39.3458 41.0135 39.3458 46.5689V55.2612C39.3458 57.5537 40.2892 59.7941 41.9342 61.4084C43.5213 62.9655 45.5875 63.8173 47.7672 63.8173C47.8206 63.8173 47.8741 63.8166 47.9276 63.8158C52.4795 63.7287 56.1833 59.9531 56.1833 55.3989L56.1877 50.8616C59.9406 49.4341 63.2958 47.053 65.8901 43.9769C69.6188 39.5553 71.597 33.9296 71.4608 28.1362C71.3173 22.041 68.849 16.2952 64.5102 11.9564C60.1721 7.61826 54.4263 5.15002 48.3297 5.00647C41.8815 4.85705 35.8024 7.25352 31.2028 11.7454C30.8689 12.0721 30.5407 12.4112 30.2273 12.7547C29.6809 13.3538 29.7234 14.2825 30.3225 14.8296C30.9223 15.376 31.8503 15.3335 32.3974 14.7344Z" fill="#27AE60"/>
<path d="M32.481 37.1214H32.5198C37.1399 37.1002 40.8994 33.3239 40.8994 28.703C40.8994 26.839 41.6341 25.0944 42.9678 23.7907C44.3001 22.4899 46.063 21.8014 47.9351 21.8395C51.5408 21.9245 54.5429 24.9267 54.6279 28.5324C54.647 29.3432 55.3259 29.9774 56.1301 29.9657C56.9409 29.9467 57.5832 29.2743 57.5642 28.4635C57.4426 23.3131 53.1543 19.0248 48.0024 18.9033C45.335 18.8483 42.8176 19.8327 40.9163 21.6901C39.0113 23.5505 37.9624 26.0414 37.9624 28.703C37.9624 31.7118 35.5147 34.1713 32.5067 34.1844C31.0777 34.1918 29.7052 33.6205 28.6695 32.5775C27.5899 31.4899 26.9813 29.9855 26.9996 28.4489C27.0391 25.1376 27.8243 21.9933 29.3353 19.1032C29.711 18.3847 29.4327 17.497 28.7142 17.1213C27.9957 16.7463 27.108 17.0246 26.7323 17.7424C25.006 21.0463 24.108 24.6366 24.0633 28.4144C24.0362 30.7326 24.9554 33.0038 26.5858 34.6459C28.1715 36.244 30.2633 37.1222 32.481 37.1214Z" fill="#27AE60"/>
</g>
<defs>
<filter id="filter0_d" x="0" y="-0.00012207" width="95.7462" height="106" filterUnits="userSpaceOnUse" color-interpolation-filters="sRGB">
<feFlood flood-opacity="0" result="BackgroundImageFix"/>
<feColorMatrix in="SourceAlpha" type="matrix" values="0 0 0 0 0 0 0 0 0 0 0 0 0 0 0 0 0 0 127 0"/>
<feOffset/>
<feGaussianBlur stdDeviation="2.5"/>
<feColorMatrix type="matrix" values="0 0 0 0 0 0 0 0 0 0 0 0 0 0 0 0 0 0 0.1 0"/>
<feBlend mode="normal" in2="BackgroundImageFix" result="effect1_dropShadow"/>
<feBlend mode="normal" in="SourceGraphic" in2="effect1_dropShadow" result="shape"/>
</filter>
</defs>
</svg>
