<svg width="103" height="103" viewBox="0 0 103 103" fill="none" xmlns="http://www.w3.org/2000/svg">
<g filter="url(#filter0_d)">
<path d="M51.1752 16.8174C52.1855 16.8174 53.0045 15.9984 53.0045 14.9881V6.82918C53.0045 5.81889 52.1855 4.99988 51.1752 4.99988C50.165 4.99988 49.3459 5.81889 49.3459 6.82918V14.9881C49.3461 15.9984 50.1651 16.8174 51.1752 16.8174Z" fill="#27AE60"/>
<path d="M95.8903 67.8447L92.6588 64.6223C91.5091 63.4741 89.977 62.8417 88.3444 62.8417C87.3005 62.8417 86.2984 63.1014 85.4104 63.588L79.3207 57.5056L79.6173 57.2093C82.0878 54.734 82.0869 50.7115 79.6171 48.2445C78.7346 47.3603 77.6333 46.7707 76.4328 46.5225C76.5981 45.952 76.6851 45.3544 76.6851 44.7428C76.6851 43.0436 76.025 41.4502 74.8302 40.2603C73.9474 39.3761 72.8463 38.7865 71.6459 38.5383C71.8111 37.9678 71.8982 37.3704 71.8982 36.7586C71.8982 35.0592 71.2381 33.466 70.0413 32.2743C69.1374 31.3715 68.0263 30.8001 66.8596 30.5569C67.4837 28.405 66.9505 25.9839 65.2576 24.2881C63.8484 22.8849 61.9363 22.2819 60.0935 22.4773L48.0263 20.1932C46.1859 19.8441 43.8876 19.6132 42.4368 20.9365C42.3453 21.02 42.2519 21.1161 42.16 21.2231C39.9106 20.4032 37.2869 20.8914 35.4856 22.6908C34.2906 23.8843 33.6323 25.4769 33.6323 27.1753C33.6323 27.7871 33.719 28.3845 33.8841 28.9552C32.6849 29.2031 31.5851 29.792 30.7054 30.6733C29.508 31.8658 28.8477 33.4566 28.8465 35.1529C28.8459 35.7661 28.9329 36.3656 29.099 36.9377C27.8992 37.1851 26.7987 37.7729 25.9163 38.6542C24.7189 39.8503 24.0595 41.4439 24.0595 43.1413C24.0595 44.4415 24.4477 45.6801 25.167 46.7263C24.2588 47.0342 23.4269 47.5466 22.7303 48.2425C20.2582 50.7115 20.2572 54.7341 22.7319 57.2132L23.0274 57.5074L16.937 63.5867C14.6736 62.5211 11.8849 62.9203 10.0171 64.7857L6.78353 68.0102C5.63338 69.1589 5.00018 70.6912 5 72.3247C5 73.9584 5.63338 75.4909 6.78353 76.6398L10.819 80.6704C11.5338 81.3844 12.6921 81.3837 13.406 80.6689C14.12 79.9542 14.1193 78.7959 13.4045 78.082L9.369 74.0514C8.9109 73.5939 8.6586 72.9806 8.6586 72.3249C8.6586 71.6694 8.9109 71.0563 9.36791 70.5999L12.6017 67.3752C13.4096 66.5682 14.6462 66.4479 15.5853 67.0094C15.6514 67.1087 15.7279 67.2032 15.8154 67.2909C15.9722 67.4481 16.1511 67.5685 16.3411 67.6566L34.8853 86.1735C34.9734 86.3655 35.0944 86.5463 35.2522 86.7043C35.4059 86.8581 35.5812 86.9771 35.7672 87.0647C36.1593 87.5081 36.376 88.0744 36.376 88.6785C36.376 89.3343 36.1237 89.9473 35.6656 90.4049L32.4351 93.6315C31.4806 94.5819 29.928 94.5817 28.9764 93.6344L24.9408 89.5985C24.2265 88.8842 23.0683 88.8842 22.3539 89.5985C21.6395 90.3129 21.6395 91.4711 22.3539 92.1855L26.3923 96.2243C27.581 97.408 29.142 97.9996 30.7038 97.9996C32.2659 97.9996 33.8287 97.4071 35.0188 96.2223L38.2513 92.9936C39.4014 91.8447 40.0348 90.3124 40.0348 88.6785C40.0348 87.5126 39.7106 86.3991 39.1077 85.439L45.9621 78.593C45.9694 78.5855 45.9766 78.5781 45.9841 78.5706C46.7689 77.7592 48.9546 77.9111 51.0684 78.0578C52.5702 78.1623 54.2445 78.2784 55.8804 78.0898L63.3865 85.587C62.9002 86.4736 62.6407 87.4744 62.6407 88.5167C62.6407 90.1487 63.2741 91.6802 64.4242 92.829L67.6569 96.0577C68.8063 97.2058 70.3384 97.8383 71.971 97.8383C73.6034 97.8383 75.1355 97.206 76.2851 96.0577L95.8916 76.475C97.0417 75.3263 97.6751 73.794 97.6751 72.1603C97.6749 70.5269 97.0415 68.9945 95.8903 67.8447ZM47.3451 23.7879L55.2804 25.2899L50.5307 30.0378C49.796 29.6846 48.789 29.026 47.6842 27.9692C46.1721 26.5227 45.0904 24.8525 44.992 23.8108C44.9918 23.8102 44.9918 23.8097 44.9918 23.8091C44.9918 23.8089 44.9916 23.8088 44.9916 23.8086C44.9845 23.7337 44.9827 23.674 44.9836 23.6284C45.2228 23.5703 45.8582 23.5058 47.3451 23.7879ZM38.0709 25.2793C38.9976 24.3535 40.4373 24.2467 41.4845 24.9558C42.0779 27.4439 44.2004 29.699 45.1552 30.6126C45.8629 31.2898 48.1336 33.32 50.4255 33.878C50.7356 34.3225 50.9043 34.8523 50.9043 35.4114C50.9043 36.1316 50.6273 36.805 50.1226 37.3092C49.6192 37.8134 48.9448 38.091 48.2233 38.091C47.5017 38.091 46.8272 37.8134 46.3216 37.3068L46.3214 37.3066L46.3205 37.3057L38.0707 29.0709C37.5678 28.5686 37.2908 27.8953 37.2908 27.1753C37.2909 26.4551 37.5679 25.7817 38.0709 25.2793ZM33.2909 33.2619C33.7942 32.7578 34.4679 32.4801 35.1883 32.4801C35.9096 32.4801 36.5854 32.7584 37.092 33.2644L43.735 39.8941C44.7811 40.9418 44.7811 42.6467 43.7386 43.6908C43.2326 44.1948 42.5558 44.4724 41.833 44.4724C41.1103 44.4724 40.4335 44.1948 39.9296 43.6929L39.9295 43.6928L34.8898 38.6542C34.882 38.6464 34.8735 38.6392 34.8655 38.6312L33.2889 37.0553C32.783 36.5499 32.5045 35.8753 32.5051 35.1557C32.5058 34.4384 32.7834 33.7672 33.2909 33.2619ZM28.5017 41.2428C29.0054 40.7398 29.6806 40.4628 30.4031 40.4628C31.1197 40.4628 31.7891 40.7358 32.2906 41.2301L37.3456 46.2828C37.8497 46.7848 38.1274 47.4574 38.1274 48.1767C38.1274 48.8958 37.8497 49.5685 37.3436 50.0725C36.8401 50.5753 36.1657 50.8523 35.4444 50.8523C34.722 50.8523 34.0454 50.5746 33.5412 50.0725L31.7086 48.2421C31.7082 48.2416 31.7077 48.2412 31.7073 48.2408L28.5019 45.0393C27.9966 44.5345 27.7183 43.8602 27.7183 43.1409C27.7183 42.4218 27.9966 41.7474 28.5017 41.2428ZM25.3158 50.8309C25.8216 50.3255 26.4977 50.0473 27.2193 50.0473C27.9408 50.0473 28.6167 50.3254 29.1224 50.8303L30.9575 52.6632C31.4617 53.1653 31.7393 53.8379 31.7393 54.5572C31.7393 55.2765 31.4616 55.9489 30.9537 56.455C30.4504 56.959 29.7759 57.2368 29.0545 57.2368C28.3328 57.2368 27.6584 56.9592 27.1514 56.4514L26.9216 56.2225C26.9185 56.2194 26.9162 56.2161 26.9133 56.2132C26.9098 56.21 26.9062 56.2071 26.9027 56.2038L25.3176 54.6248C24.2715 53.5765 24.2706 51.8747 25.3158 50.8309ZM62.5945 71.6211C61.8805 70.9061 60.7222 70.9056 60.0076 71.6194L58.3801 73.2449C56.8336 74.7914 54.0315 74.5967 51.3216 74.4087C48.3788 74.2042 45.3358 73.9931 43.3666 76.0148L36.6287 82.7445L19.7792 65.9197L25.7421 59.9676C26.7276 60.5717 27.8649 60.8956 29.0548 60.8956C30.7548 60.8956 32.3489 60.2366 33.5395 59.0437C34.7382 57.85 35.3984 56.2568 35.3984 54.5574C35.3984 54.5416 35.3973 54.526 35.3973 54.5102C35.4131 54.5103 35.4289 54.5113 35.4447 54.5113C37.1424 54.5113 38.7352 53.8543 39.9275 52.6634C41.1261 51.4697 41.7864 49.8763 41.7864 48.1771C41.7864 48.1613 41.7853 48.1457 41.7853 48.1299C41.8013 48.1299 41.8172 48.131 41.8334 48.131C43.5305 48.131 45.1242 47.4747 46.3245 46.2793C47.5705 45.0313 48.1868 43.3881 48.175 41.7485C48.1914 41.7487 48.2077 41.7496 48.2241 41.7496C49.924 41.7494 51.5179 41.0906 52.7104 39.8959C53.9054 38.7024 54.5637 37.1097 54.5637 35.4114C54.5637 34.2237 54.2407 33.0882 53.6386 32.1046L58.8649 26.8805C59.2544 26.4927 59.7346 26.2493 60.2379 26.1488C60.2924 26.143 60.3462 26.1343 60.3994 26.1238C61.207 26.0124 62.0551 26.2616 62.6726 26.8767C63.7187 27.9246 63.7187 29.6294 62.6765 30.6735L61.0847 32.2587C61.0795 32.2639 61.0738 32.2687 61.0686 32.2739L59.2353 34.1041C58.5203 34.818 58.5196 35.9763 59.2336 36.6911C59.9479 37.406 61.106 37.4065 61.8206 36.6927L63.4186 35.0968C63.419 35.0964 63.4194 35.0961 63.4197 35.0957L63.6613 34.855C64.7103 33.8157 66.4097 33.8179 67.4576 34.8643C67.9618 35.3664 68.2396 36.039 68.2396 36.7583C68.2396 37.4774 67.9618 38.15 67.4536 38.656L65.8528 40.2601C65.8526 40.2603 65.8524 40.2605 65.8523 40.2608L64.0191 42.0865C63.3033 42.7994 63.3009 43.9578 64.0139 44.6734C64.7268 45.3893 65.885 45.3915 66.6008 44.6787L68.4423 42.8447C68.9456 42.3404 69.62 42.0629 70.3415 42.0629C71.0632 42.0629 71.7378 42.3404 72.2447 42.8483C72.749 43.3505 73.0265 44.0232 73.0265 44.7425C73.0265 45.4616 72.749 46.1342 72.2418 46.6391L69.0504 49.8318C68.3362 50.5464 68.3364 51.7045 69.0508 52.4188C69.4081 52.7759 69.876 52.9542 70.344 52.9542C70.8123 52.9542 71.2806 52.7755 71.6377 52.4182L73.2018 50.8536C73.2107 50.845 73.2203 50.8376 73.2292 50.8287C73.7325 50.3244 74.407 50.0469 75.1284 50.0469C75.8501 50.0469 76.5245 50.3244 77.0297 50.8305C78.0747 51.8744 78.0738 53.5764 77.0297 54.6222L75.4394 56.2107C75.4389 56.2112 75.4381 56.2118 75.4376 56.2123C75.4371 56.2129 75.4365 56.2136 75.436 56.2141L72.9119 58.7351C72.1971 59.4492 72.1964 60.6075 72.9103 61.3222C73.2675 61.6799 73.7362 61.8588 74.2046 61.8588C74.6723 61.8588 75.1403 61.6804 75.4974 61.3239L76.732 60.0907L82.6493 66.0011L65.8012 82.8286L59.7646 76.7993C60.1854 76.5286 60.5881 76.2104 60.9661 75.8324L62.5927 74.2078C63.3078 73.4941 63.3086 72.3358 62.5945 71.6211ZM93.3059 73.8865L73.6995 93.4691C73.2408 93.9272 72.6269 94.1795 71.9708 94.1795C71.3147 94.1795 70.7008 93.9272 70.242 93.4689L67.0093 90.2403C66.5512 89.7829 66.2989 89.1708 66.2989 88.5167C66.2989 87.8628 66.5512 87.2507 67.0093 86.7931L86.6158 67.2105C87.0746 66.7522 87.6883 66.4999 88.3446 66.4999C89.0007 66.4999 89.6146 66.7522 90.0745 67.2116L93.3061 70.434C93.7642 70.8916 94.0165 71.5044 94.0165 72.1602C94.0163 72.8161 93.764 73.4291 93.3059 73.8865Z" fill="#27AE60"/>
<path d="M26.8848 15.2754C27.2419 15.6317 27.7094 15.8097 28.177 15.8097C28.6456 15.8097 29.1144 15.6306 29.4717 15.2726C30.1854 14.5575 30.1843 13.3994 29.4692 12.6857L22.8033 6.03313C22.0884 5.31946 20.9301 5.32037 20.2164 6.03567C19.5027 6.75079 19.5038 7.90893 20.219 8.62259L26.8848 15.2754Z" fill="#27AE60"/>
<path d="M74.1737 15.8097C74.6415 15.8097 75.1094 15.6313 75.4665 15.2747L82.1272 8.62198C82.842 7.90813 82.8427 6.74981 82.1287 6.03506C81.4148 5.3203 80.2567 5.31957 79.5418 6.0336L72.881 12.6864C72.1663 13.4002 72.1655 14.5585 72.8795 15.2733C73.2368 15.6309 73.7053 15.8097 74.1737 15.8097Z" fill="#27AE60"/>
<path d="M16.2482 83.6872C15.54 84.4076 15.5498 85.5659 16.2703 86.2741L16.2756 86.2792C16.6311 86.6287 17.0926 86.8027 17.554 86.8027C18.0275 86.8027 18.5011 86.6194 18.8598 86.2545C19.568 85.5341 19.5555 84.3732 18.8351 83.665C18.1149 82.9568 16.9567 82.9668 16.2482 83.6872Z" fill="#27AE60"/>
<path d="M67.0688 68.9858C67.3471 68.9858 67.6293 68.9224 67.8944 68.7889C68.7964 68.3339 69.1588 67.2339 68.7039 66.3319C68.2489 65.4298 67.1487 65.0673 66.2469 65.5223L66.2367 65.5274C65.3347 65.9824 64.9774 67.0799 65.4322 67.9819C65.7534 68.6191 66.3993 68.9858 67.0688 68.9858Z" fill="#27AE60"/>
</g>
<defs>
<filter id="filter0_d" x="0" y="-0.00012207" width="102.675" height="103" filterUnits="userSpaceOnUse" color-interpolation-filters="sRGB">
<feFlood flood-opacity="0" result="BackgroundImageFix"/>
<feColorMatrix in="SourceAlpha" type="matrix" values="0 0 0 0 0 0 0 0 0 0 0 0 0 0 0 0 0 0 127 0"/>
<feOffset/>
<feGaussianBlur stdDeviation="2.5"/>
<feColorMatrix type="matrix" values="0 0 0 0 0 0 0 0 0 0 0 0 0 0 0 0 0 0 0.1 0"/>
<feBlend mode="normal" in2="BackgroundImageFix" result="effect1_dropShadow"/>
<feBlend mode="normal" in="SourceGraphic" in2="effect1_dropShadow" result="shape"/>
</filter>
</defs>
</svg>
