<svg width="114" height="114" viewBox="0 0 114 114" fill="none" xmlns="http://www.w3.org/2000/svg">
<g filter="url(#filter0_d)">
<path d="M92.9032 51.8709H100.057C100.765 53.856 102.645 55.2902 104.871 55.2902C107.698 55.2902 110 52.9887 110 50.1612C110 47.3337 107.698 45.0322 104.871 45.0322C102.645 45.0322 100.765 46.4664 100.057 48.4515H92.9032V44.0304L98.7402 38.1935H100.057C100.765 40.1786 102.645 41.6128 104.871 41.6128C107.698 41.6128 110 39.3113 110 36.4838C110 33.6563 107.698 31.3547 104.871 31.3547C102.645 31.3547 100.765 32.7889 100.057 34.7741H98.0323C97.579 34.7741 97.1432 34.9536 96.8235 35.275L92.9032 39.1952V29.6451C92.9032 24.9318 89.0681 21.0967 84.3548 21.0967H74.8047L78.7249 17.1764C79.0463 16.8567 79.2258 16.4226 79.2258 15.9677V13.9433C81.211 13.2353 82.6452 11.3545 82.6452 9.12894C82.6452 6.30146 80.3436 3.99991 77.5161 3.99991C74.6887 3.99991 72.3871 6.30146 72.3871 9.12894C72.3871 11.3545 73.8213 13.2353 75.8064 13.9433V15.2597L71.1783 19.8879C70.8569 20.2076 70.6774 20.6417 70.6774 21.0967H65.5484V17.3626C67.5336 16.6547 68.9677 14.7739 68.9677 12.5483C68.9677 9.72082 66.6662 7.41926 63.8387 7.41926C61.0112 7.41926 58.7097 9.72082 58.7097 12.5483C58.7097 14.7739 60.1439 16.6547 62.129 17.3626V21.0967H51.871V13.9433C53.8561 13.2353 55.2903 11.3545 55.2903 9.12894C55.2903 6.30146 52.9888 3.99991 50.1613 3.99991C47.3338 3.99991 45.0323 6.30146 45.0323 9.12894C45.0323 11.3545 46.4664 13.2353 48.4516 13.9433V21.0967H44.0305L38.1936 15.2597V13.9433C40.1787 13.2353 41.6129 11.3545 41.6129 9.12894C41.6129 6.30146 39.3114 3.99991 36.4839 3.99991C33.6564 3.99991 31.3548 6.30146 31.3548 9.12894C31.3548 11.3545 32.789 13.2353 34.7742 13.9433V15.9677C34.7742 16.4226 34.9537 16.8567 35.2751 17.1764L39.1953 21.0967H29.6452C24.9319 21.0967 21.0968 24.9318 21.0968 29.6451V39.1952L17.1765 35.275C16.8568 34.9536 16.421 34.7741 15.9677 34.7741H13.9433C13.2354 32.7889 11.3546 31.3547 9.12903 31.3547C6.30155 31.3547 4 33.6563 4 36.4838C4 39.3113 6.30155 41.6128 9.12903 41.6128C11.3546 41.6128 13.2354 40.1786 13.9433 38.1935H15.2598L21.0968 44.0304V48.4515H13.9433C13.2354 46.4664 11.3546 45.0322 9.12903 45.0322C6.30155 45.0322 4 47.3337 4 50.1612C4 52.9887 6.30155 55.2902 9.12903 55.2902C11.3546 55.2902 13.2354 53.856 13.9433 51.8709H21.0968V62.1289H17.3627C16.6548 60.1438 14.774 58.7096 12.5484 58.7096C9.72091 58.7096 7.41935 61.0111 7.41935 63.8386C7.41935 66.6661 9.72091 68.9677 12.5484 68.9677C14.774 68.9677 16.6548 67.5335 17.3627 65.5483H21.0968V70.6773C20.6435 70.6773 20.2077 70.8568 19.888 71.1782L15.2598 75.8064H13.9433C13.2354 73.8212 11.3546 72.387 9.12903 72.387C6.30155 72.387 4 74.6886 4 77.516C4 80.3435 6.30155 82.6451 9.12903 82.6451C11.3546 82.6451 13.2354 81.2109 13.9433 79.2257H15.9677C16.421 79.2257 16.8568 79.0462 17.1765 78.7248L21.0968 74.8046V84.3548C21.0968 89.068 24.9319 92.9031 29.6452 92.9031H38.1936V89.4838H29.6452C26.8177 89.4838 24.5161 87.1822 24.5161 84.3548V29.6451C24.5161 26.8176 26.8177 24.516 29.6452 24.516H84.3548C87.1823 24.516 89.4839 26.8176 89.4839 29.6451V84.3548C89.4839 87.1822 87.1823 89.4838 84.3548 89.4838H75.8064V92.9031H84.3548C89.0681 92.9031 92.9032 89.068 92.9032 84.3548V74.8046L96.8235 78.7248C97.1432 79.0462 97.579 79.2257 98.0323 79.2257H100.057C100.765 81.2109 102.645 82.6451 104.871 82.6451C107.698 82.6451 110 80.3435 110 77.516C110 74.6886 107.698 72.387 104.871 72.387C102.645 72.387 100.765 73.8212 100.057 75.8064H98.7402L94.112 71.1782C93.7923 70.8568 93.3565 70.6773 92.9032 70.6773V65.5483H96.6373C97.3452 67.5335 99.226 68.9677 101.452 68.9677C104.279 68.9677 106.581 66.6661 106.581 63.8386C106.581 61.0111 104.279 58.7096 101.452 58.7096C99.226 58.7096 97.3452 60.1438 96.6373 62.1289H92.9032V51.8709ZM104.871 48.4515C105.813 48.4515 106.581 49.2179 106.581 50.1612C106.581 51.1045 105.813 51.8709 104.871 51.8709C103.929 51.8709 103.161 51.1045 103.161 50.1612C103.161 49.2179 103.929 48.4515 104.871 48.4515ZM104.871 34.7741C105.813 34.7741 106.581 35.5405 106.581 36.4838C106.581 37.4271 105.813 38.1935 104.871 38.1935C103.929 38.1935 103.161 37.4271 103.161 36.4838C103.161 35.5405 103.929 34.7741 104.871 34.7741ZM77.5161 7.41926C78.4578 7.41926 79.2258 8.18561 79.2258 9.12894C79.2258 10.0723 78.4578 10.8386 77.5161 10.8386C76.5745 10.8386 75.8064 10.0723 75.8064 9.12894C75.8064 8.18561 76.5745 7.41926 77.5161 7.41926ZM63.8387 10.8386C64.7804 10.8386 65.5484 11.605 65.5484 12.5483C65.5484 13.4916 64.7804 14.258 63.8387 14.258C62.8971 14.258 62.129 13.4916 62.129 12.5483C62.129 11.605 62.8971 10.8386 63.8387 10.8386ZM50.1613 7.41926C51.103 7.41926 51.871 8.18561 51.871 9.12894C51.871 10.0723 51.103 10.8386 50.1613 10.8386C49.2196 10.8386 48.4516 10.0723 48.4516 9.12894C48.4516 8.18561 49.2196 7.41926 50.1613 7.41926ZM36.4839 7.41926C37.4255 7.41926 38.1936 8.18561 38.1936 9.12894C38.1936 10.0723 37.4255 10.8386 36.4839 10.8386C35.5422 10.8386 34.7742 10.0723 34.7742 9.12894C34.7742 8.18561 35.5422 7.41926 36.4839 7.41926ZM9.12903 38.1935C8.18737 38.1935 7.41935 37.4271 7.41935 36.4838C7.41935 35.5405 8.18737 34.7741 9.12903 34.7741C10.0707 34.7741 10.8387 35.5405 10.8387 36.4838C10.8387 37.4271 10.0707 38.1935 9.12903 38.1935ZM9.12903 51.8709C8.18737 51.8709 7.41935 51.1045 7.41935 50.1612C7.41935 49.2179 8.18737 48.4515 9.12903 48.4515C10.0707 48.4515 10.8387 49.2179 10.8387 50.1612C10.8387 51.1045 10.0707 51.8709 9.12903 51.8709ZM12.5484 65.5483C11.6067 65.5483 10.8387 64.7819 10.8387 63.8386C10.8387 62.8953 11.6067 62.1289 12.5484 62.1289C13.49 62.1289 14.2581 62.8953 14.2581 63.8386C14.2581 64.7819 13.49 65.5483 12.5484 65.5483ZM9.12903 79.2257C8.18737 79.2257 7.41935 78.4594 7.41935 77.516C7.41935 76.5727 8.18737 75.8064 9.12903 75.8064C10.0707 75.8064 10.8387 76.5727 10.8387 77.516C10.8387 78.4594 10.0707 79.2257 9.12903 79.2257ZM104.871 75.8064C105.813 75.8064 106.581 76.5727 106.581 77.516C106.581 78.4594 105.813 79.2257 104.871 79.2257C103.929 79.2257 103.161 78.4594 103.161 77.516C103.161 76.5727 103.929 75.8064 104.871 75.8064ZM101.452 62.1289C102.393 62.1289 103.161 62.8953 103.161 63.8386C103.161 64.7819 102.393 65.5483 101.452 65.5483C100.51 65.5483 99.7419 64.7819 99.7419 63.8386C99.7419 62.8953 100.51 62.1289 101.452 62.1289Z" fill="#27AE60"/>
<path d="M68.9678 83.2996C78.3519 78.7299 84.3549 69.2006 84.3549 58.7096C84.3549 43.6272 72.0825 31.3548 57.0001 31.3548C41.9177 31.3548 29.6453 43.6272 29.6453 58.7096C29.6453 69.2006 35.6483 78.7299 45.0324 83.2996V86.0645H41.613V89.4838H45.0324V92.9032H41.613V96.3225H45.0324V101.452C45.0324 102.397 45.7987 103.161 46.742 103.161H48.6245C49.4193 107.057 52.8712 110 57.0001 110C61.129 110 64.581 107.057 65.3757 103.161H67.2582C68.2015 103.161 68.9678 102.397 68.9678 101.452V96.3225H72.3872V92.9032H68.9678V89.4838H72.3872V86.0645H68.9678V83.2996ZM47.4257 80.6399C40.3065 77.5261 35.246 71.2192 33.6239 63.8387H40.218C40.926 65.8238 42.8068 67.258 45.0324 67.258C47.8598 67.258 50.1614 64.9565 50.1614 62.129C50.1614 59.3015 47.8598 57 45.0324 57C42.8068 57 40.926 58.4342 40.218 60.4193H33.1281C33.0872 59.8533 33.0646 59.284 33.0646 58.7096C33.0646 57.7246 33.1431 56.7587 33.2591 55.8028L38.9016 50.1612H43.6374C44.3453 52.1464 46.2261 53.5806 48.4517 53.5806C51.2792 53.5806 53.5807 51.279 53.5807 48.4516C53.5807 45.6241 51.2792 43.3225 48.4517 43.3225C46.2261 43.3225 44.3453 44.7567 43.6374 46.7419H38.1937C37.7404 46.7419 37.3046 46.9214 36.9849 47.2428L35.0631 49.1645C38.758 40.7071 47.1953 34.7742 57.0001 34.7742C66.8049 34.7742 75.2422 40.7071 78.9371 49.1645L77.0153 47.2428C76.6956 46.9214 76.2598 46.7419 75.8066 46.7419H70.3628C69.6549 44.7567 67.7741 43.3225 65.5485 43.3225C62.721 43.3225 60.4195 45.6241 60.4195 48.4516C60.4195 51.279 62.721 53.5806 65.5485 53.5806C67.7741 53.5806 69.6549 52.1464 70.3628 50.1612H75.0986L80.7411 55.8028C80.8571 56.7587 80.9356 57.7246 80.9356 58.7096C80.9356 59.284 80.913 59.8533 80.8721 60.4193H73.7822C73.0742 58.4342 71.1934 57 68.9678 57C66.1404 57 63.8388 59.3015 63.8388 62.129C63.8388 64.9565 66.1404 67.258 68.9678 67.258C71.1934 67.258 73.0742 65.8238 73.7822 63.8387H80.3763C78.7542 71.2192 73.6937 77.5261 66.5745 80.6399C65.9517 80.9112 65.5485 81.5273 65.5485 82.206V86.0645H58.7098V75.4917C60.6949 74.7838 62.1291 72.903 62.1291 70.6774C62.1291 67.8499 59.8276 65.5483 57.0001 65.5483C54.1726 65.5483 51.8711 67.8499 51.8711 70.6774C51.8711 72.903 53.3053 74.7838 55.2904 75.4917V86.0645H48.4517V82.206C48.4517 81.5273 48.0502 80.9112 47.4257 80.6399ZM43.3227 62.129C43.3227 61.1857 44.0907 60.4193 45.0324 60.4193C45.974 60.4193 46.742 61.1857 46.742 62.129C46.742 63.0723 45.974 63.8387 45.0324 63.8387C44.0907 63.8387 43.3227 63.0723 43.3227 62.129ZM46.742 48.4516C46.742 47.5082 47.5101 46.7419 48.4517 46.7419C49.3934 46.7419 50.1614 47.5082 50.1614 48.4516C50.1614 49.3949 49.3934 50.1612 48.4517 50.1612C47.5101 50.1612 46.742 49.3949 46.742 48.4516ZM67.2582 48.4516C67.2582 49.3949 66.4901 50.1612 65.5485 50.1612C64.6068 50.1612 63.8388 49.3949 63.8388 48.4516C63.8388 47.5082 64.6068 46.7419 65.5485 46.7419C66.4901 46.7419 67.2582 47.5082 67.2582 48.4516ZM70.6775 62.129C70.6775 63.0723 69.9095 63.8387 68.9678 63.8387C68.0262 63.8387 67.2582 63.0723 67.2582 62.129C67.2582 61.1857 68.0262 60.4193 68.9678 60.4193C69.9095 60.4193 70.6775 61.1857 70.6775 62.129ZM55.2904 70.6774C55.2904 69.734 56.0584 68.9677 57.0001 68.9677C57.9418 68.9677 58.7098 69.734 58.7098 70.6774C58.7098 71.6207 57.9418 72.3871 57.0001 72.3871C56.0584 72.3871 55.2904 71.6207 55.2904 70.6774ZM57.0001 106.581C54.7745 106.581 52.8937 105.146 52.1858 103.161H61.8127C61.1065 105.146 59.2257 106.581 57.0001 106.581ZM65.5485 99.7419H48.4517V96.3225H65.5485V99.7419ZM65.5485 92.9032H48.4517V89.4838H65.5485V92.9032Z" fill="#27AE60"/>
</g>
<defs>
<filter id="filter0_d" x="0" y="-9.15527e-05" width="114" height="114" filterUnits="userSpaceOnUse" color-interpolation-filters="sRGB">
<feFlood flood-opacity="0" result="BackgroundImageFix"/>
<feColorMatrix in="SourceAlpha" type="matrix" values="0 0 0 0 0 0 0 0 0 0 0 0 0 0 0 0 0 0 127 0"/>
<feOffset/>
<feGaussianBlur stdDeviation="2"/>
<feColorMatrix type="matrix" values="0 0 0 0 0 0 0 0 0 0 0 0 0 0 0 0 0 0 0.1 0"/>
<feBlend mode="normal" in2="BackgroundImageFix" result="effect1_dropShadow"/>
<feBlend mode="normal" in="SourceGraphic" in2="effect1_dropShadow" result="shape"/>
</filter>
</defs>
</svg>
