<svg width="92" height="105" viewBox="0 0 92 105" fill="none" xmlns="http://www.w3.org/2000/svg">
<g filter="url(#filter0_d)">
<path d="M87.9395 75.5039C87.9395 65.868 81.6394 57.687 72.9454 54.833C76.3512 52.6133 78.6129 48.7754 78.6129 44.4152C78.6129 37.5586 73.034 31.9797 66.1774 31.9797C65.5199 31.9797 64.8795 32.0466 64.2499 32.1445C64.337 31.8927 64.4473 31.6471 64.5235 31.3921L67.7319 30.6367V20.965L64.5266 20.2095C64.1504 18.9473 63.6452 17.7287 63.0157 16.5675L64.7489 13.7648L57.9669 6.98129L55.1642 8.71603C54.0046 8.0896 52.786 7.58285 51.5206 7.20512L50.7667 3.99988H41.1728L40.4189 7.20512C39.1551 7.58285 37.9349 8.08804 36.7753 8.71603L33.9726 6.98129L27.1906 13.7648L28.9238 16.5675C28.2958 17.7287 27.7906 18.9473 27.4129 20.2095L24.2077 20.9665V30.6398L27.4145 31.3953C27.4906 31.6486 27.601 31.8942 27.688 32.146C27.0601 32.0466 26.4196 31.9797 25.7621 31.9797C18.9055 31.9797 13.3266 37.5586 13.3266 44.4152C13.3266 48.7754 15.5883 52.6133 18.9941 54.833C10.3001 57.687 4 65.868 4 75.5039V81.7216H28.1357C25.6673 85.2502 24.2077 89.5342 24.2077 94.1571V100.375H67.7319V94.1571C67.7319 89.5342 66.2722 85.2502 63.8038 81.7216H87.9395V75.5039ZM69.2863 58.4051C69.2863 60.9326 67.8624 63.0684 66.1774 63.0684C64.4924 63.0684 63.0686 60.9326 63.0686 58.4051C63.0686 57.9637 63.1307 57.5269 63.224 57.0932C64.1971 56.9377 65.1826 56.8507 66.1774 56.8507C67.1862 56.8507 68.1702 56.9533 69.1355 57.1087C69.2257 57.5377 69.2863 57.9699 69.2863 58.4051ZM45.9698 72.395C40.8261 72.395 36.6431 68.2121 36.6431 63.0684C36.6431 57.9248 40.8261 53.7418 45.9698 53.7418C51.1134 53.7418 55.2964 57.9248 55.2964 63.0684C55.2964 68.2121 51.1134 72.395 45.9698 72.395ZM33.87 58.7129C34.0022 58.7766 34.1358 58.8357 34.2664 58.9025C33.8016 60.2083 33.5343 61.6057 33.5343 63.0684C33.5343 63.6886 33.5949 64.2949 33.6835 64.8918L31.613 69.4478L27.845 64.7394L33.87 58.7129ZM45.9698 50.6329C41.6826 50.6329 37.896 52.8138 35.6592 56.1248C34.6519 55.6102 33.6058 55.1828 32.5332 54.8315C35.9374 52.6102 38.1976 48.7738 38.1976 44.4152C38.1976 44.1261 38.1743 43.8432 38.1541 43.5603C38.8909 43.8851 39.6463 44.1665 40.4189 44.3981L41.1728 47.6033H50.7667L51.5206 44.3981C52.2932 44.1665 53.0487 43.8851 53.7855 43.5603C53.7653 43.8432 53.7419 44.1261 53.7419 44.4152C53.7419 48.7754 56.0021 52.6102 59.4063 54.8315C58.3353 55.1812 57.2892 55.6118 56.2819 56.1263C54.045 52.8154 50.2569 50.6329 45.9698 50.6329ZM75.504 44.4152C75.504 49.5588 71.321 53.7418 66.1774 53.7418C61.0338 53.7418 56.8508 49.5588 56.8508 44.4152C56.8508 39.2716 61.0338 35.0886 66.1774 35.0886C71.321 35.0886 75.504 39.2716 75.504 44.4152ZM30.1814 29.7227L29.9544 28.7978L27.3165 28.176V23.4257L29.9529 22.8054L30.1798 21.8806C30.5715 20.2826 31.2026 18.7546 32.0607 17.3432L32.5534 16.5302L31.1265 14.225L34.4296 10.9218L36.7349 12.3488L37.5478 11.8544C38.9561 10.9995 40.4842 10.3653 42.0868 9.97357L43.0117 9.74663L43.635 7.10875H48.3045L48.9247 9.74507L49.8496 9.97202C51.4523 10.3653 52.9803 10.9979 54.3886 11.8529L55.2015 12.3472L57.5068 10.9202L60.81 14.2234L59.3845 16.5302L59.8773 17.3432C60.7353 18.7546 61.3664 20.2826 61.7582 21.8806L61.9851 22.8054L64.623 23.4272V28.1776L61.9867 28.7978L61.7597 29.7227C61.4457 31.0082 60.9359 32.2611 60.2908 33.4658C57.8239 34.7979 55.856 36.9399 54.7445 39.5327L54.3901 39.7472C52.9818 40.6022 51.4538 41.2364 49.8512 41.6281L48.9263 41.855L48.3061 44.4914H43.6366L43.0163 41.8535L42.0914 41.6265C40.4919 41.2348 38.9639 40.6022 37.5525 39.7457L37.1981 39.5312C36.0867 36.9368 34.1187 34.7948 31.6519 33.4626C31.0052 32.2611 30.4954 31.0082 30.1814 29.7227ZM16.4355 44.4152C16.4355 39.2716 20.6185 35.0886 25.7621 35.0886C30.9057 35.0886 35.0887 39.2716 35.0887 44.4152C35.0887 49.5588 30.9057 53.7418 25.7621 53.7418C20.6185 53.7418 16.4355 49.5588 16.4355 44.4152ZM30.6757 57.5113L25.7621 62.4249L20.8625 57.5253C22.4263 57.0978 24.0647 56.8507 25.7621 56.8507C27.4331 56.8507 29.0839 57.0776 30.6757 57.5113ZM23.6792 64.7379L19.9112 69.4463L15.5712 59.8989C16.2396 59.4606 16.9422 59.0751 17.6666 58.7238L23.6792 64.7379ZM7.10887 75.5039C7.10887 70.1287 9.40788 65.2913 13.0592 61.8839L19.1775 75.3438L25.7621 67.1115L32.3467 75.3438L35.1493 69.1774C36.1364 70.9183 37.5292 72.3981 39.2002 73.4878C35.9981 74.5386 33.1239 76.3091 30.7674 78.6143H14.881V69.2877H11.7722V78.6143H7.10887V75.5039ZM45.9698 75.5039C48.6714 75.5039 51.2331 76.093 53.5539 77.1314L45.9698 94.8644L38.3857 77.1299C40.7064 76.093 43.2682 75.5039 45.9698 75.5039ZM27.3165 94.1571C27.3165 87.6876 30.629 81.9812 35.6452 78.6345L43.6132 97.266H35.0887V87.9394H31.9798V97.266H27.3165V94.1571ZM64.623 97.266H59.9597V87.9394H56.8508V97.266H48.3263L56.2943 78.6345C61.3105 81.9812 64.623 87.6876 64.623 94.1571V97.266ZM84.8306 78.6128H80.1673V69.2862H77.0585V78.6128H61.1706C58.8141 76.3076 55.9384 74.537 52.7378 73.4863C56.1435 71.2665 58.4052 67.4286 58.4052 63.0684C58.4052 61.6073 58.1379 60.2098 57.6731 58.9056C58.427 58.5186 59.2058 58.1828 60.0032 57.9046C59.9939 58.0709 59.9597 58.2372 59.9597 58.4051C59.9597 62.6907 62.7483 66.1773 66.1774 66.1773C69.6065 66.1773 72.3952 62.6907 72.3952 58.4051C72.3952 58.2435 72.3625 58.0849 72.3532 57.9232C79.6077 60.4803 84.8306 67.3851 84.8306 75.5039V78.6128Z" fill="#27AE60"/>
<path d="M45.9697 31.9797C49.3988 31.9797 52.1874 29.1911 52.1874 25.762C52.1874 22.3329 49.3988 19.5442 45.9697 19.5442C42.5406 19.5442 39.752 22.3329 39.752 25.762C39.752 29.1911 42.5406 31.9797 45.9697 31.9797ZM45.9697 22.6531C47.6842 22.6531 49.0786 24.0474 49.0786 25.762C49.0786 27.4765 47.6842 28.8708 45.9697 28.8708C44.2552 28.8708 42.8608 27.4765 42.8608 25.762C42.8608 24.0474 44.2552 22.6531 45.9697 22.6531Z" fill="#27AE60"/>
<path d="M45.9697 38.1975C52.8263 38.1975 58.4051 32.6186 58.4051 25.762C58.4051 18.9054 52.8263 13.3265 45.9697 13.3265C39.113 13.3265 33.5342 18.9054 33.5342 25.762C33.5342 32.6186 39.113 38.1975 45.9697 38.1975ZM45.9697 16.4354C51.1133 16.4354 55.2963 20.6183 55.2963 25.762C55.2963 30.9056 51.1133 35.0886 45.9697 35.0886C40.826 35.0886 36.6431 30.9056 36.6431 25.762C36.6431 20.6183 40.826 16.4354 45.9697 16.4354Z" fill="#27AE60"/>
</g>
<defs>
<filter id="filter0_d" x="0" y="-0.00012207" width="91.9395" height="104.375" filterUnits="userSpaceOnUse" color-interpolation-filters="sRGB">
<feFlood flood-opacity="0" result="BackgroundImageFix"/>
<feColorMatrix in="SourceAlpha" type="matrix" values="0 0 0 0 0 0 0 0 0 0 0 0 0 0 0 0 0 0 127 0"/>
<feOffset/>
<feGaussianBlur stdDeviation="2"/>
<feColorMatrix type="matrix" values="0 0 0 0 0 0 0 0 0 0 0 0 0 0 0 0 0 0 0.1 0"/>
<feBlend mode="normal" in2="BackgroundImageFix" result="effect1_dropShadow"/>
<feBlend mode="normal" in="SourceGraphic" in2="effect1_dropShadow" result="shape"/>
</filter>
</defs>
</svg>
