<svg width="81" height="94" viewBox="0 0 81 94" fill="none" xmlns="http://www.w3.org/2000/svg">
<g filter="url(#filter0_d)">
<path d="M76.8991 27.2544L76.8965 27.1877C76.8593 26.3645 76.8344 25.4935 76.8194 24.5244C76.7494 19.7988 72.9928 15.8898 68.2665 15.6256C58.4123 15.0757 50.7892 11.8625 44.2758 5.51383L44.2202 5.46087C42.0957 3.51292 38.891 3.51292 36.7659 5.46087L36.7103 5.51383C30.1969 11.8625 22.5738 15.0757 12.7196 15.6263C7.99394 15.8898 4.23668 19.7988 4.16671 24.5251C4.15233 25.4876 4.12682 26.3586 4.08955 27.1877L4.08563 27.3427C3.89404 37.3911 3.65602 49.8968 7.83962 61.2477C10.14 67.4897 13.624 72.9157 18.194 77.3759C23.399 82.4554 30.2165 86.4879 38.4568 89.3611C38.7249 89.4546 39.0035 89.5305 39.2873 89.5874C39.6874 89.6671 40.0902 89.707 40.493 89.707C40.8958 89.707 41.2993 89.6671 41.6988 89.5874C41.9826 89.5305 42.2631 89.454 42.5325 89.3598C50.7631 86.4814 57.5734 82.4469 62.7738 77.3681C67.3419 72.9066 70.8258 67.4793 73.1282 61.2359C77.3274 49.851 77.0901 37.3218 76.8991 27.2544ZM68.4097 59.4959C63.9972 71.4595 54.9898 79.6757 40.873 84.6126C40.8226 84.6296 40.769 84.6446 40.7134 84.6557C40.5676 84.6845 40.4192 84.6845 40.2714 84.6551C40.2164 84.6439 40.1628 84.6296 40.1131 84.6126C25.9812 79.6848 16.968 71.4732 12.5588 59.509C8.70276 49.0461 8.92116 37.5663 9.11406 27.4388L9.11537 27.3826C9.1546 26.5123 9.18076 25.6007 9.19514 24.599C9.22653 22.5006 10.8979 20.7646 13.0001 20.6475C18.5765 20.3363 23.4755 19.2586 27.9769 17.3532C32.4724 15.4504 36.4651 12.7681 40.1818 9.1534C40.3708 8.99385 40.616 8.99319 40.8043 9.1534C44.5217 12.7681 48.5143 15.4504 53.0092 17.3532C57.5106 19.2586 62.4095 20.3363 67.9866 20.6475C70.0889 20.7646 71.7602 22.5006 71.7909 24.5996C71.806 25.6066 71.8321 26.5182 71.8714 27.3826C72.0636 37.5219 72.2768 49.0107 68.4097 59.4959Z" fill="#27AE60"/>
<path d="M40.4918 25.4955C28.7138 25.4955 19.1323 35.0776 19.1323 46.8549C19.1323 58.6329 28.7138 68.215 40.4918 68.215C52.2691 68.215 61.8512 58.6329 61.8512 46.8549C61.8512 35.0776 52.2691 25.4955 40.4918 25.4955ZM40.4918 63.1853C31.487 63.1853 24.1614 55.8597 24.1614 46.8549C24.1614 37.8502 31.487 30.5246 40.4918 30.5246C49.4959 30.5246 56.8215 37.8502 56.8215 46.8549C56.8215 55.8597 49.4959 63.1853 40.4918 63.1853Z" fill="#27AE60"/>
<path d="M46.6306 40.2238L36.7098 50.1447L34.017 47.4519C33.0349 46.4698 31.4426 46.4698 30.4605 47.4519C29.479 48.4341 29.479 50.0263 30.4605 51.0078L34.9318 55.4791C35.4229 55.9702 36.0663 56.2154 36.7098 56.2154C37.3532 56.2154 37.9966 55.9702 38.4877 55.4791L50.1872 43.7797C51.1687 42.7975 51.1687 41.2053 50.1872 40.2238C49.205 39.241 47.6128 39.241 46.6306 40.2238Z" fill="#27AE60"/>
</g>
<defs>
<filter id="filter0_d" x="0" y="-9.15527e-05" width="80.9842" height="93.7071" filterUnits="userSpaceOnUse" color-interpolation-filters="sRGB">
<feFlood flood-opacity="0" result="BackgroundImageFix"/>
<feColorMatrix in="SourceAlpha" type="matrix" values="0 0 0 0 0 0 0 0 0 0 0 0 0 0 0 0 0 0 127 0"/>
<feOffset/>
<feGaussianBlur stdDeviation="2"/>
<feColorMatrix type="matrix" values="0 0 0 0 0 0 0 0 0 0 0 0 0 0 0 0 0 0 0.1 0"/>
<feBlend mode="normal" in2="BackgroundImageFix" result="effect1_dropShadow"/>
<feBlend mode="normal" in="SourceGraphic" in2="effect1_dropShadow" result="shape"/>
</filter>
</defs>
</svg>
