<svg width="107" height="107" viewBox="0 0 107 107" fill="none" xmlns="http://www.w3.org/2000/svg">
<g filter="url(#filter0_d)">
<path d="M22.0604 80.0137C20.7024 80.0137 19.397 80.3526 18.2388 80.9891C12.1378 73.1682 8.78906 63.4528 8.78906 53.4999C8.78906 28.8458 28.8459 8.78894 53.5 8.78894C56.4972 8.78894 59.4929 9.08718 62.4043 9.67552C63.4285 9.88274 64.4291 9.21965 64.6363 8.19394C64.8435 7.16823 64.1804 6.16916 63.1547 5.9612C59.9969 5.32328 56.7488 4.99988 53.5 4.99988C40.5454 4.99988 28.3656 10.0448 19.2053 19.2052C10.0449 28.3655 5 40.5453 5 53.4999C5 64.3971 8.70026 75.0317 15.4369 83.5571C14.5696 84.8529 14.1034 86.3759 14.1034 87.9707C14.1034 90.0962 14.9315 92.0943 16.4345 93.5966C17.9368 95.0996 19.935 95.9278 22.0604 95.9278C24.1858 95.9278 26.184 95.0996 27.687 93.5966C29.1901 92.0943 30.0174 90.0954 30.0174 87.97C30.0174 85.8453 29.1901 83.8464 27.687 82.3441C26.184 80.8411 24.1858 80.0137 22.0604 80.0137ZM25.0073 90.9176C24.2206 91.705 23.1734 92.1387 22.0604 92.1387C20.9474 92.1387 19.9009 91.705 19.1135 90.9176C18.3261 90.1302 17.8924 89.0838 17.8924 87.9707C17.8924 86.8569 18.3261 85.8105 19.1135 85.0231C19.9002 84.2357 20.9474 83.8028 22.0604 83.8028C23.1734 83.8028 24.2199 84.2364 25.0073 85.0231C25.7947 85.8105 26.2284 86.8569 26.2284 87.9707C26.2284 89.0838 25.7947 90.1302 25.0073 90.9176Z" fill="#27AE60"/>
<path d="M91.5615 23.4404C93.621 20.3507 93.2902 16.1265 90.5661 13.4024C89.063 11.9001 87.0649 11.072 84.9395 11.072C82.814 11.072 80.8159 11.9001 79.3129 13.4024C77.8098 14.9054 76.9824 16.9036 76.9824 19.029C76.9824 21.1544 77.8098 23.1526 79.3129 24.6556C80.8159 26.1587 82.814 26.986 84.9395 26.986C86.2975 26.986 87.6029 26.6471 88.7611 26.0106C94.8621 33.8322 98.2108 43.5469 98.2108 53.4998C98.2108 78.1539 78.1539 98.2108 53.4999 98.2108C50.5323 98.2108 47.5647 97.9185 44.6807 97.3412C43.655 97.1362 42.6566 97.8015 42.4509 98.8272C42.2459 99.8537 42.9112 100.851 43.9369 101.057C47.0651 101.682 50.2829 102 53.4999 102C66.4545 102 78.6342 96.9549 87.7946 87.7946C96.955 78.6342 102 66.4544 102 53.4998C102 42.6019 98.2989 31.9666 91.5615 23.4404ZM81.9926 21.9766C81.2052 21.1892 80.7715 20.1428 80.7715 19.029C80.7715 17.916 81.2052 16.8695 81.9926 16.0821C82.7793 15.2947 83.8264 14.861 84.9395 14.861C86.0525 14.861 87.0997 15.2947 87.8871 16.0821C89.5115 17.7073 89.5115 20.3515 87.8871 21.9766C87.0997 22.7633 86.0525 23.197 84.9395 23.197C83.8257 23.197 82.7793 22.7633 81.9926 21.9766Z" fill="#27AE60"/>
<path d="M45.6821 86.0858C45.6821 87.1322 46.531 87.9803 47.5767 87.9803H59.4227C60.4691 87.9803 61.3172 87.1322 61.3172 86.0858V82.4129C63.8082 81.7425 66.1897 80.7552 68.4276 79.4661L71.0207 82.0592C71.376 82.4144 71.8577 82.6142 72.361 82.6142C72.8627 82.6142 73.3452 82.4144 73.7005 82.0585L82.0734 73.6796C82.8127 72.9395 82.8127 71.7399 82.0734 71.0006L79.4832 68.4104C80.7724 66.1725 81.7596 63.791 82.4301 61.3H86.0889C87.1354 61.3 87.9835 60.4519 87.9835 59.4055V47.5595C87.9835 46.5131 87.1354 45.665 86.0889 45.665H82.4294C81.7589 43.1747 80.7724 40.7932 79.4832 38.5553L82.0593 35.9792C82.4146 35.6239 82.6144 35.1414 82.6144 34.6389C82.6136 34.1364 82.4138 33.6539 82.0586 33.2987L73.679 24.9258C72.9397 24.1864 71.7401 24.1864 71 24.9265L68.4276 27.4997C66.1897 26.2105 63.8082 25.2233 61.3172 24.5528V20.9139C61.3172 19.8675 60.4691 19.0194 59.4227 19.0194H47.5767C46.531 19.0194 45.6821 19.8675 45.6821 20.9139V24.5535C43.1919 25.2233 40.8104 26.2105 38.5725 27.4997L35.9993 24.9265C35.26 24.1872 34.0604 24.1864 33.3203 24.9258L24.9415 33.2994C24.5855 33.6547 24.3857 34.1364 24.3857 34.6389C24.3857 35.1414 24.5855 35.6239 24.9407 35.9792L27.5168 38.5553C26.2277 40.7932 25.2404 43.1739 24.5699 45.665H20.9178C19.8714 45.665 19.0233 46.5131 19.0233 47.5587L19.0166 59.4047C19.0159 59.9072 19.2157 60.3898 19.5709 60.745C19.9261 61.1002 20.4079 61.3 20.9111 61.3H24.5699C25.2404 63.791 26.2277 66.1725 27.5168 68.4104L24.9267 71.0006C24.1873 71.7399 24.1866 72.9395 24.9267 73.6796L33.2996 82.0585C33.6548 82.4137 34.1366 82.6142 34.6391 82.6142H34.6398C35.1423 82.6142 35.6241 82.4144 35.9793 82.0592L38.5717 79.4661C40.8104 80.7552 43.1919 81.7425 45.6821 82.4129V86.0858ZM39.3147 75.4816C38.5651 74.9969 37.5786 75.102 36.9466 75.7332L34.6398 78.04L28.9451 72.3408L31.2497 70.0356C31.8809 69.4043 31.986 68.4178 31.5013 67.6682C29.7836 65.0099 28.5758 62.0963 27.9128 59.0073C27.7248 58.1348 26.9537 57.511 26.0604 57.511H22.8064L22.8108 49.454H26.0604C26.9537 49.454 27.7248 48.8309 27.9128 47.9576C28.5758 44.8694 29.7836 41.9558 31.5013 39.2976C31.986 38.5479 31.8809 37.5614 31.2497 36.9301L28.9599 34.6397L34.6591 28.945L36.9466 31.2332C37.5786 31.8645 38.5643 31.9688 39.3147 31.4848C41.9723 29.7672 44.8858 28.5594 47.9748 27.8963C48.8473 27.7084 49.4712 26.9365 49.4712 26.044V22.8085H57.5281V26.0432C57.5281 26.9365 58.1513 27.7084 59.0245 27.8956C62.1128 28.5594 65.0271 29.7664 67.6846 31.4841C68.4343 31.9688 69.4208 31.8645 70.052 31.2325L72.3403 28.945L78.0394 34.6397L75.7497 36.9294C75.1177 37.5614 75.0133 38.5479 75.4981 39.2976C77.2157 41.9558 78.4227 44.8694 79.0866 47.9576C79.2738 48.8309 80.0457 49.454 80.9389 49.454H84.1944V57.511H80.9389C80.0457 57.511 79.2745 58.1348 79.0866 59.0073C78.4235 62.0956 77.2157 65.0099 75.4981 67.6674C75.0133 68.4178 75.1184 69.4043 75.7497 70.0356L78.0542 72.3401L72.3595 78.0392L70.0528 75.7332C69.4208 75.1012 68.4343 74.9969 67.6846 75.4816C65.0263 77.1993 62.1128 78.4063 59.0245 79.0701C58.1513 79.2581 57.5281 80.0292 57.5281 80.9225V84.1913H49.4712V80.9225C49.4712 80.03 48.8473 79.2581 47.9748 79.0701C44.8866 78.407 41.973 77.1993 39.3147 75.4816Z" fill="#27AE60"/>
<path d="M69.1543 53.4999C69.1543 44.868 62.132 37.8456 53.5 37.8456C44.868 37.8456 37.8457 44.868 37.8457 53.4999C37.8457 62.1319 44.868 69.1542 53.5 69.1542C62.132 69.1542 69.1543 62.1319 69.1543 53.4999ZM41.6348 53.4999C41.6348 46.9571 46.9572 41.6347 53.5 41.6347C60.0428 41.6347 65.3652 46.9579 65.3652 53.4999C65.3652 60.042 60.0428 65.3652 53.5 65.3652C46.9572 65.3652 41.6348 60.0427 41.6348 53.4999Z" fill="#27AE60"/>
<path d="M70.9446 12.165C71.4434 12.165 71.9318 11.9623 72.2841 11.61C72.6363 11.2555 72.8391 10.7671 72.8391 10.2683C72.8391 9.77246 72.6371 9.28328 72.2841 8.9288C71.9318 8.57653 71.4434 8.37376 70.9446 8.37376C70.4443 8.37376 69.9581 8.57653 69.6058 8.9288C69.2528 9.28328 69.05 9.77024 69.05 10.2683C69.05 10.7686 69.2528 11.2555 69.6058 11.61C69.9581 11.9623 70.4443 12.165 70.9446 12.165Z" fill="#27AE60"/>
<path d="M36.1384 94.8687C35.6404 94.8687 35.1512 95.0715 34.7989 95.4237C34.4467 95.776 34.2439 96.2652 34.2439 96.7632C34.2439 97.2635 34.4467 97.7505 34.7989 98.1027C35.1512 98.455 35.6404 98.6578 36.1384 98.6578C36.6365 98.6578 37.1257 98.455 37.4779 98.1027C37.8302 97.7505 38.033 97.2613 38.033 96.7632C38.033 96.2652 37.8302 95.776 37.4779 95.4237C37.1257 95.0715 36.6365 94.8687 36.1384 94.8687Z" fill="#27AE60"/>
</g>
<defs>
<filter id="filter0_d" x="0" y="-0.00012207" width="107" height="107" filterUnits="userSpaceOnUse" color-interpolation-filters="sRGB">
<feFlood flood-opacity="0" result="BackgroundImageFix"/>
<feColorMatrix in="SourceAlpha" type="matrix" values="0 0 0 0 0 0 0 0 0 0 0 0 0 0 0 0 0 0 127 0"/>
<feOffset/>
<feGaussianBlur stdDeviation="2.5"/>
<feColorMatrix type="matrix" values="0 0 0 0 0 0 0 0 0 0 0 0 0 0 0 0 0 0 0.1 0"/>
<feBlend mode="normal" in2="BackgroundImageFix" result="effect1_dropShadow"/>
<feBlend mode="normal" in="SourceGraphic" in2="effect1_dropShadow" result="shape"/>
</filter>
</defs>
</svg>
